<?xml version="1.0" encoding="UTF-8"?>
<svg width="512px" height="492px" viewBox="0 0 512 492" version="1.1" xmlns="http://www.w3.org/2000/svg" xmlns:xlink="http://www.w3.org/1999/xlink">
    <!-- Generator: Sketch 51.3 (57544) - http://www.bohemiancoding.com/sketch -->
    <title>clock</title>
    <desc>Created with Sketch.</desc>
    <defs></defs>
    <g id="Page-1" stroke="none" stroke-width="1" fill="none" fill-rule="evenodd">
        <g id="Desktop-HD" transform="translate(-130.000000, -1291.000000)" fill="#F9CD00" fill-rule="nonzero">
            <g id="clock" transform="translate(130.000000, 1291.000000)">
                <path d="M511.005,269.646 C506.408,223.408 485.751,179.817 452.837,146.902 C424.709,118.775 390.281,100.7 354.055,92.663 L354.055,67.255 C368.851,63.574 379.849,50.181 379.849,34.262 C379.849,15.514 364.597,0.262 345.849,0.262 L273.849,0.262 C255.101,0.262 239.849,15.514 239.849,34.262 C239.849,50.18 250.847,63.573 265.642,67.255 L265.642,92.734 C229.527,100.805 195.213,118.855 167.165,146.903 C161.027,153.041 155.367,159.48 150.186,166.172 C149.935,166.153 149.684,166.134 149.428,166.134 L78.167,166.134 C72.645,166.134 68.167,170.611 68.167,176.134 C68.167,181.657 72.645,186.134 78.167,186.134 L136.579,186.134 C129.247,198.409 123.335,211.3 118.835,224.57 L10,224.57 C4.478,224.57 0,229.047 0,234.57 C0,240.093 4.478,244.57 10,244.57 L113.184,244.57 C110.302,257.221 108.648,270.096 108.221,283.007 L64,283.007 C58.478,283.007 54,287.484 54,293.007 C54,298.53 58.478,303.007 64,303.007 L108.54,303.007 C109.384,315.951 111.465,328.827 114.784,341.444 L50,341.444 C44.478,341.444 40,345.921 40,351.444 C40,356.967 44.478,361.444 50,361.444 L121.166,361.444 C130.976,387.395 146.307,411.718 167.165,432.576 C200.111,465.522 243.747,486.184 290.033,490.757 C296.639,491.409 303.25,491.732 309.852,491.732 C348.874,491.732 387.4,480.439 420.09,459.151 C424.718,456.137 426.027,449.942 423.013,445.314 C419.999,440.686 413.804,439.377 409.176,442.391 C337.619,488.988 241.786,478.913 181.307,418.434 C110.345,347.472 110.345,232.009 181.307,161.046 C252.268,90.085 367.731,90.085 438.694,161.046 C499.093,221.446 509.223,317.197 462.78,388.719 C459.772,393.351 461.089,399.545 465.72,402.552 C470.354,405.56 476.546,404.243 479.553,399.611 C504.367,361.396 515.537,315.241 511.005,269.646 Z M259.849,34.263 C259.849,26.543 266.129,20.263 273.849,20.263 L345.849,20.263 C353.569,20.263 359.849,26.543 359.849,34.263 C359.849,41.983 353.569,48.263 345.849,48.263 L344.055,48.263 L275.642,48.263 L273.849,48.263 C266.129,48.263 259.849,41.982 259.849,34.263 Z M285.642,89.296 L285.642,68.263 L334.055,68.263 L334.055,89.26 C317.979,87.348 301.715,87.36 285.642,89.296 Z" id="XMLID_389_"></path>
                <path d="M445.77,415.5 C443.13,415.5 440.56,416.57 438.701,418.43 C436.831,420.29 435.77,422.87 435.77,425.5 C435.77,428.13 436.831,430.71 438.701,432.57 C440.56,434.44 443.131,435.5 445.77,435.5 C448.4,435.5 450.97,434.44 452.84,432.57 C454.7,430.71 455.77,428.13 455.77,425.5 C455.77,422.87 454.701,420.29 452.84,418.43 C450.97,416.57 448.399,415.5 445.77,415.5 Z" id="XMLID_391_"></path>
                <path d="M310.001,134.609 C224.463,134.609 154.872,204.199 154.872,289.738 C154.872,375.277 224.463,444.867 310.001,444.867 C395.539,444.867 465.13,375.277 465.13,289.738 C465.13,204.199 395.539,134.609 310.001,134.609 Z M310.001,424.867 C235.49,424.867 174.872,364.248 174.872,289.738 C174.872,215.228 235.49,154.609 310.001,154.609 C384.512,154.609 445.13,215.228 445.13,289.738 C445.13,364.248 384.512,424.867 310.001,424.867 Z" id="XMLID_394_"></path>
                <path d="M373.257,212.34 L323.727,261.869 C319.585,259.821 314.926,258.664 310.001,258.664 C305.075,258.664 300.417,259.821 296.275,261.869 L274.108,239.702 C270.202,235.797 263.872,235.797 259.965,239.702 C256.06,243.607 256.06,249.939 259.965,253.844 L282.132,276.011 C280.083,280.153 278.927,284.812 278.927,289.737 C278.927,306.871 292.866,320.811 310.001,320.811 C327.136,320.811 341.075,306.871 341.075,289.737 C341.075,284.812 339.918,280.153 337.87,276.011 L385.946,227.935 L387.399,226.482 C391.304,222.577 391.304,216.245 387.399,212.34 C383.494,208.435 377.164,208.435 373.257,212.34 Z M310.001,300.812 C303.895,300.812 298.927,295.844 298.927,289.738 C298.927,283.632 303.895,278.664 310.001,278.664 C316.107,278.664 321.075,283.632 321.075,289.738 C321.075,295.844 316.107,300.812 310.001,300.812 Z" id="XMLID_397_"></path>
                <path d="M416.92,279.86 L407.655,279.86 C402.133,279.86 397.655,284.337 397.655,289.86 C397.655,295.383 402.133,299.86 407.655,299.86 L416.92,299.86 C422.442,299.86 426.92,295.383 426.92,289.86 C426.92,284.337 422.442,279.86 416.92,279.86 Z" id="XMLID_398_"></path>
                <path d="M212.346,279.616 L203.082,279.616 C197.56,279.616 193.082,284.093 193.082,289.616 C193.082,295.139 197.56,299.616 203.082,299.616 L212.346,299.616 C217.868,299.616 222.346,295.139 222.346,289.616 C222.346,284.093 217.868,279.616 212.346,279.616 Z" id="XMLID_399_"></path>
                <path d="M310.123,202.083 C315.645,202.083 320.123,197.606 320.123,192.083 L320.123,182.819 C320.123,177.296 315.645,172.819 310.123,172.819 C304.601,172.819 300.123,177.296 300.123,182.819 L300.123,192.083 C300.123,197.606 304.601,202.083 310.123,202.083 Z" id="XMLID_400_"></path>
                <path d="M309.879,377.393 C304.357,377.393 299.879,381.87 299.879,387.393 L299.879,396.657 C299.879,402.18 304.357,406.657 309.879,406.657 C315.401,406.657 319.879,402.18 319.879,396.657 L319.879,387.393 C319.879,381.87 315.401,377.393 309.879,377.393 Z" id="XMLID_424_"></path>
                <path d="M10,341.44 C7.37,341.44 4.79,342.51 2.93,344.37 C1.07,346.23 0,348.81 0,351.44 C0,354.08 1.069,356.65 2.93,358.51 C4.791,360.37 7.37,361.44 10,361.44 C12.63,361.44 15.21,360.37 17.069,358.51 C18.929,356.65 20,354.07 20,351.44 C20,348.81 18.93,346.23 17.069,344.37 C15.21,342.51 12.63,341.44 10,341.44 Z" id="XMLID_425_"></path>
            </g>
        </g>
    </g>
</svg>