<?xml version="1.0" encoding="UTF-8"?>
<svg width="27px" height="27px" viewBox="0 0 27 27" version="1.1" xmlns="http://www.w3.org/2000/svg" xmlns:xlink="http://www.w3.org/1999/xlink">
    <!-- Generator: Sketch 51.3 (57544) - http://www.bohemiancoding.com/sketch -->
    <title>Icon</title>
    <desc>Created with Sketch.</desc>
    <defs></defs>
    <g id="Page-1" stroke="none" stroke-width="1" fill="none" fill-rule="evenodd">
        <g id="Desktop-HD" transform="translate(-177.000000, -117.000000)" fill="#0D253E">
            <path d="M200.89075,117.64375 L191.38075,127.15375 C190.99075,127.54275 190.36075,127.54275 189.97175,127.15375 L180.10975,117.29175 C179.72075,116.90275 179.08975,116.90275 178.70075,117.29175 L177.29175,118.70075 C176.90275,119.08975 176.90275,119.71975 177.29175,120.10975 L187.15375,129.97175 C187.54275,130.36075 187.54275,130.99075 187.15375,131.38075 L177.64375,140.88975 C177.25475,141.27875 177.25475,141.90975 177.64375,142.29875 L179.05275,143.70775 C179.44175,144.09675 180.07275,144.09675 180.46175,143.70775 L189.97175,134.19775 C190.36075,133.80875 190.99075,133.80875 191.38075,134.19775 L200.53775,143.35575 C200.92675,143.74475 201.55775,143.74475 201.94675,143.35575 L203.35575,141.94675 C203.74475,141.55775 203.74475,140.92675 203.35575,140.53775 L194.19775,131.38075 C193.80875,130.99075 193.80875,130.36075 194.19775,129.97175 L203.70775,120.46175 C204.09675,120.07275 204.09675,119.44175 203.70775,119.05275 L202.29875,117.64375 C201.90975,117.25475 201.27975,117.25475 200.89075,117.64375" id="Icon"></path>
        </g>
    </g>
</svg>