<?xml version="1.0" encoding="UTF-8"?>
<svg width="508px" height="487px" viewBox="0 0 508 487" version="1.1" xmlns="http://www.w3.org/2000/svg" xmlns:xlink="http://www.w3.org/1999/xlink">
    <!-- Generator: Sketch 51.3 (57544) - http://www.bohemiancoding.com/sketch -->
    <title>hot-coffee-rounded-cup-on-a-plate-from-side-view</title>
    <desc>Created with Sketch.</desc>
    <defs></defs>
    <g id="Page-1" stroke="none" stroke-width="1" fill="none" fill-rule="evenodd">
        <g id="Desktop-HD" transform="translate(-855.000000, -1291.000000)" fill="#FACA00" fill-rule="nonzero">
            <g id="hot-coffee-rounded-cup-on-a-plate-from-side-view" transform="translate(855.000000, 1291.000000)">
                <path d="M65.1816535,476.231447 L134.456463,476.231447 C135.419265,482.274063 140.421141,487 146.738064,487 L304.238453,487 C310.578859,487 315.557252,482.297575 316.520054,476.231447 L385.794864,476.231447 C397.512874,476.231447 407,466.73255 407,455 L44,455 C44,466.73255 53.4871264,476.231447 65.1816535,476.231447 Z" id="Shape"></path>
                <path d="M489.255912,258.088336 C471.622533,243.746614 446.790422,243.511118 430.446718,245.324439 C430.915691,233.879321 431.173626,222.175157 431.173626,210 L0,210 C0,327.041641 17.6333787,411.4906 129.225465,443 L301.948161,443 C346.148851,430.542248 375.459653,409.60663 394.898577,381.770972 C437.246824,380.946735 505.365129,364.202951 507.921031,305.470184 C509.023117,279.753992 498.377434,265.482919 489.255912,258.088336 Z M412.649199,348.189206 C420.762429,327.253588 425.569401,303.703962 428.219097,277.822923 C439.662034,275.938953 459.382342,274.737922 469.348015,282.886093 C471.177009,284.393269 476.875029,289.056095 476.218467,304.104306 C474.881894,334.530422 437.270273,344.75096 412.649199,348.189206 Z" id="Shape"></path>
                <path d="M174.895907,193 C174.895907,193 256.019172,186.968017 218.841538,117.705825 C188.988177,62.1036118 195.802531,29.4792655 234,0 C234,0 108.884747,32.2722851 181.849329,132.140338 C208.620007,175.655114 174.895907,193 174.895907,193 Z" id="Shape"></path>
                <path d="M231,189 C231,189 295.730683,175.120776 260.502786,122.163671 C247.713629,99.196022 265.350662,91 265.350662,91 C265.350662,91 223.682016,92.3386053 241.272879,128.762761 C255.354804,158.047688 251.176397,174.674575 231,189 Z" id="Shape"></path>
            </g>
        </g>
    </g>
</svg>