<?xml version="1.0" encoding="UTF-8"?>
<svg width="217px" height="220px" viewBox="0 0 217 220" version="1.1" xmlns="http://www.w3.org/2000/svg" xmlns:xlink="http://www.w3.org/1999/xlink">
    <!-- Generator: Sketch 51.3 (57544) - http://www.bohemiancoding.com/sketch -->
    <title>fish@2x</title>
    <desc>Created with Sketch.</desc>
    <defs>
        <linearGradient x1="50%" y1="0%" x2="50%" y2="100%" id="linearGradient-1">
            <stop stop-color="#FDE500" offset="0%"></stop>
            <stop stop-color="#F9C700" offset="100%"></stop>
        </linearGradient>
    </defs>
    <g id="Page-1" stroke="none" stroke-width="1" fill="none" fill-rule="evenodd">
        <g id="Desktop-HD" transform="translate(-209.000000, -788.000000)" fill="url(#linearGradient-1)" fill-rule="nonzero">
            <g id="Group-3" transform="translate(147.000000, 747.000000)">
                <g id="fish" transform="translate(61.468830, 41.947195)">
                    <path d="M149.413595,68.2225083 C137.23269,55.8552475 128.746968,41.0110561 125.518343,26.4257096 C124.861332,23.4576898 124.437096,20.5612871 124.228506,17.7457096 C116.622494,21.5956436 109.173681,26.2640594 102.227703,31.9453465 L68.5034842,26.8022112 C63.3582408,26.0185149 58.4729804,29.3374587 57.2244577,34.4632013 L44.8903843,85.0863036 C44.2323655,87.7893399 44.6868318,90.6468647 46.1499915,93.0010231 C47.6131512,95.3551815 49.9570282,97.0033993 52.6425107,97.5640594 L61.4123997,99.3954125 C59.2871904,107.294785 57.8169769,114.892343 56.8052605,121.795215 L13.6974722,131.652805 C7.36114432,133.101518 2.62602904,138.017525 1.33921435,144.481485 C0.0523996584,150.945446 2.53735269,157.341881 7.82266439,161.174422 C8.65904355,161.781122 9.581076,162.253795 10.5585312,162.577096 L39.0921605,172.016238 C42.9122972,173.279769 45.9353544,176.349076 47.1798463,180.226634 L56.4777626,209.197822 C56.7951836,210.189208 57.2617421,211.125347 57.8582921,211.974521 C60.9488642,216.367723 65.7565329,218.887624 71.0488984,218.887624 C71.0488984,218.887624 71.0488984,218.887624 71.0488984,218.887624 C78.7194022,218.887624 85.2532365,213.592046 86.935064,206.010858 L96.6511699,162.209802 C101.467908,161.48033 106.617182,160.52066 111.965978,159.261221 L111.597165,167.256766 C111.301913,173.657294 115.562408,179.297657 121.725414,180.665545 L132.570128,183.075974 C133.477045,183.277525 134.407139,183.379835 135.333202,183.379835 C142.188488,183.379835 147.845636,177.932838 148.211426,170.976766 L149.552656,145.398185 C159.468284,140.107723 169.045329,133.363432 177.512912,124.765281 C186.711067,115.426403 193.754791,104.772838 199.147925,93.8051815 C182.955423,92.6337294 164.767703,83.8115182 149.413595,68.2225083 Z M144.647242,9.32148515 C169.796055,1.01287129 193.369855,0.00920792079 203.063792,0.00920792079 C205.419761,0.00920792079 206.781144,0.0695709571 206.928266,0.0767326733 C212.12994,0.319207921 216.29269,4.54666667 216.531512,9.82792079 C216.617165,11.7155446 217.734688,41.0591419 207.470401,73.0546205 C202.906593,73.9181188 198.150316,73.2387789 194.998275,72.5185149 C184.462921,70.1152475 173.042818,63.2758086 163.664287,53.7537954 C154.284748,44.2317822 147.548369,32.6359406 145.181315,21.940429 C144.475935,18.7493729 143.809855,13.9407921 144.647242,9.32148515 Z M163.92427,26.6160066 C165.338053,29.0254125 167.848198,30.3626073 170.423843,30.3626073 C171.73988,30.3626073 173.072041,30.0137294 174.285295,29.280165 L175.188181,28.7338284 C178.774535,26.5648515 179.948488,21.8544884 177.812195,18.2142904 C175.675901,14.5740924 171.037523,13.380132 167.45117,15.550132 L166.548284,16.0964686 C162.962938,18.2654455 161.787976,22.9758086 163.92427,26.6160066 Z" id="Shape"></path>
                </g>
            </g>
        </g>
    </g>
</svg>