<?xml version="1.0" encoding="UTF-8"?>
<svg width="218px" height="220px" viewBox="0 0 218 220" version="1.1" xmlns="http://www.w3.org/2000/svg" xmlns:xlink="http://www.w3.org/1999/xlink">
    <!-- Generator: Sketch 51.3 (57544) - http://www.bohemiancoding.com/sketch -->
    <title>fork</title>
    <desc>Created with Sketch.</desc>
    <defs></defs>
    <g id="Page-1" stroke="none" stroke-width="1" fill="none" fill-rule="evenodd">
        <g id="Desktop-HD" transform="translate(-617.000000, -788.000000)" fill-rule="nonzero">
            <g id="Group-3" transform="translate(147.000000, 747.000000)">
                <g id="fork" transform="translate(470.589240, 41.947195)">
                    <path d="M161.166728,87.8216066 L173.868455,87.0036532 C173.889896,87.0019772 173.912987,87.0003012 173.936078,86.9986252 C182.98777,86.222575 191.112521,81.4036896 196.228838,73.7739276 L206.270146,58.8026986 C215.010108,45.7690806 218.396246,30.02683 215.801802,14.4773349 C215.292149,11.4234189 213.754945,8.60918981 211.475528,6.55592576 C209.194463,4.50098525 206.261899,3.28746423 203.217179,3.13996443 C187.70989,2.38570434 172.741941,7.69066838 161.05787,18.0709662 L147.635372,29.9966598 C140.795473,36.0726455 137.061321,44.8472071 137.387894,54.0743247 C137.389543,54.0961143 137.389543,54.1195804 137.391193,54.1430461 L138.115262,67.0543065 C138.397303,72.087737 136.581356,77.0541218 133.142439,80.6712192 L28.2793834,190.146236 C25.4721712,193.121374 24.022383,197.20276 24.1988647,201.639487 C24.3934891,206.523741 26.5986847,211.320837 30.0986279,214.473645 C33.2604523,217.321397 37.606518,218.943894 41.9509343,218.943894 C42.4160538,218.943894 42.8811738,218.925457 43.344644,218.886906 C47.7006056,218.533241 51.5155773,216.582222 54.098476,213.374101 L148.453455,94.4792114 C151.582292,90.5671144 156.216996,88.1400723 161.166728,87.8216066 Z M143.416307,90.3358081 L49.0695752,209.220641 C47.6280337,211.010752 45.4112929,212.113648 42.8283942,212.323165 C39.7556351,212.572909 36.6053563,211.533706 34.3985115,209.545811 C32.1916666,207.55624 30.7996066,204.502324 30.6759044,201.372981 C30.5703453,198.743127 31.3801815,196.37475 32.9404766,194.722082 L137.795286,85.2554458 C142.495964,80.3125263 144.970005,73.5426213 144.587354,66.6805285 L143.863284,53.8027908 C143.61753,46.5803294 146.545145,39.7132085 151.900619,34.954664 L165.323117,23.0289704 C175.740479,13.7750346 189.090405,9.05001317 202.908749,9.71711429 C204.482239,9.79421624 205.996352,10.4210906 207.175645,11.4837593 C208.354938,12.5447525 209.14828,13.9996368 209.412178,15.5768788 C211.724582,29.4401833 208.706252,43.4727772 200.914671,55.0917382 L190.873363,70.0646432 C186.867066,76.0383848 180.508781,79.8147146 173.423127,80.4332079 L160.756037,81.2478093 C154.006852,81.6836041 147.689801,84.9922924 143.416307,90.3358081 Z" id="Shape" fill="#F9C900"></path>
                    <path d="M210.8702,188.420462 L140.517913,123.627537 C139.194342,122.407674 137.144621,122.504462 135.936573,123.842807 C134.731826,125.181152 134.827545,127.25542 136.151117,128.475283 L206.485251,193.253189 C208.158694,194.816817 209.107639,197.121374 209.158799,199.741326 C209.219862,202.858569 208.010163,205.97748 205.922485,208.088461 C203.836457,210.197773 200.756925,211.424311 197.667491,211.360898 C195.076459,211.309167 192.797342,210.34963 191.267478,208.675864 L128.577712,139.081918 C127.371315,137.741905 125.319944,137.646785 123.996372,138.86498 C122.672801,140.084843 122.577081,142.159111 123.783479,143.497456 L186.488097,213.10809 C189.244162,216.121869 193.168668,217.830679 197.540415,217.917455 C197.654288,217.919123 197.766512,217.920792 197.880385,217.920792 C202.578899,217.920792 207.277413,215.993375 210.507126,212.725944 C213.817705,209.378412 215.737049,204.477266 215.64133,199.612832 C215.555512,195.192288 213.867215,191.223977 210.8702,188.420462 Z" id="Shape" fill="#FACF00"></path>
                    <path d="M39.3530021,87.0668036 C44.7510443,92.1089595 51.7641832,94.9834603 59.1010056,95.1618541 C59.1242446,95.1635369 59.1474832,95.1635369 59.1690624,95.1635369 L71.9769628,95.203928 C76.9699858,95.2190746 81.7687989,97.3682183 85.1367655,101.089249 L90.7788152,107.368383 C91.422862,108.085325 92.3042768,108.448845 93.1906714,108.448845 C93.974151,108.448845 94.7609503,108.164424 95.3850782,107.587168 C96.7179897,106.356922 96.8142646,104.264999 95.6008669,102.915263 L89.9505181,96.6277147 C85.3492345,91.5418012 78.8058515,88.613446 71.998542,88.5898848 L59.2254993,88.5494937 C53.5502513,88.4030758 48.1239907,86.2000777 43.9194272,82.3410443 L6.80207724,37.604529 C6.42361714,37.1467631 6.45183558,36.483676 6.86847382,36.0612523 C7.15397955,35.7700999 7.48928208,35.7280255 7.663573,35.7280255 C7.83786393,35.7280255 8.17316688,35.7700999 8.460332,36.0612523 L42.2462333,70.3179586 C45.5859814,73.7040792 51.0205415,73.7040792 54.3602896,70.3162753 L58.3308052,66.2923118 L58.3308052,66.2906285 L65.3804625,59.1430861 C65.3804625,59.1430861 65.3821223,59.1430861 65.3821223,59.1414028 C65.3821223,59.1414028 65.3837826,59.13972 65.3837826,59.13972 L69.352638,55.115756 C72.6923861,51.729635 72.6923861,46.2196153 69.352638,42.8334943 L35.5667371,8.57847083 C35.1285196,8.13416868 35.1285196,7.40881164 35.5667371,6.96450948 C35.9833757,6.54208616 36.6373819,6.5134759 37.0888786,6.89719097 L81.2127279,44.5316036 C85.0205717,48.7928652 87.1933997,54.2961535 87.3378124,60.0485199 L87.3759905,73.000601 C87.3992291,79.9007481 90.2891403,86.534987 95.312042,91.2102576 L101.357451,96.7926449 C102.690362,98.0228907 104.751976,97.9252787 105.965374,96.5755428 C107.177111,95.2241236 107.080836,93.1338841 105.749585,91.9036383 L99.7141354,86.3296657 C96.0341049,82.9065198 93.9160539,78.0393911 93.8994546,72.9787226 L93.8596166,59.9929822 C93.8596166,59.9694205 93.8596166,59.9458592 93.8579568,59.9222975 C93.6820061,52.4836023 90.8468716,45.3730849 85.873768,39.9000902 C85.7808127,39.7974295 85.6812174,39.6998175 85.5749829,39.6089377 L41.2868025,1.83652239 C38.22592,-0.775435757 33.7839886,-0.580212082 30.9554942,2.2875564 C27.9726278,5.3118403 27.9726278,10.2311404 30.9554942,13.2537415 L64.7413955,47.5104478 C65.5381545,48.3182699 65.5381545,49.6326637 64.7413955,50.4404858 L63.0765011,52.1268142 L25.4213393,13.9504878 C24.1481847,12.6579725 22.083251,12.6579725 20.8100964,13.9504878 C19.5369418,15.2413204 19.5369418,17.334926 20.8100964,18.6257585 L58.4652586,56.8037677 L56.025184,59.2760399 L18.3700222,21.0997135 C17.0968676,19.808881 15.0319339,19.808881 13.7587793,21.0997135 C12.4839649,22.390546 12.4839649,24.4841516 13.7587793,25.7749841 L51.4122813,63.9529934 L49.7490471,65.6410051 C48.9522881,66.4488272 47.655895,66.4488272 46.859136,65.6410051 L13.0715749,31.3859816 C11.627449,29.9218043 9.70692794,29.1139822 7.663573,29.1139822 C5.62021807,29.1139822 3.69969702,29.9218043 2.25557156,31.3859816 C-0.572922864,34.2537501 -0.763813146,38.7573584 1.81071445,41.8624245 L39.0674968,86.7638699 C39.1554722,86.8715795 39.2517474,86.9725577 39.3530021,87.0668036 Z" id="Shape" fill="#F9CC00"></path>
                </g>
            </g>
        </g>
    </g>
</svg>