<?xml version="1.0" encoding="UTF-8"?>
<svg width="27px" height="44px" viewBox="0 0 27 44" version="1.1" xmlns="http://www.w3.org/2000/svg" xmlns:xlink="http://www.w3.org/1999/xlink">
    <!-- Generator: Sketch 51.3 (57544) - http://www.bohemiancoding.com/sketch -->
    <title>marker tag</title>
    <desc>Created with Sketch.</desc>
    <defs></defs>
    <g id="Page-1" stroke="none" stroke-width="1" fill="none" fill-rule="evenodd">
        <g id="Desktop-HD" transform="translate(-753.000000, -261.000000)">
            <g id="marker-tag" transform="translate(753.000000, 261.000000)">
                <g>
                    <path d="M14.6278266,0.0444331644 C14.2948266,0.0185508114 13.9579695,0.00431551733 13.6198266,0.000433164388 C13.2803981,-0.00215507091 12.9448266,0.00690375262 12.6105409,0.0263155173 C2.87768378,0.604786106 -2.87331622,11.3744332 1.46854093,20.1653743 L12.1065409,43.2847861 C12.5732552,44.2281979 13.9065409,44.2398449 14.3886838,43.3041979 L25.4226838,20.3737273 C29.9149695,11.659139 24.3478266,0.791139047 14.6278266,0.0444331644 L14.6278266,0.0444331644 Z M13.4513981,19.5830214 C10.2692552,19.5545508 7.7119695,16.9352567 7.74025521,13.7310214 C7.76725521,10.525492 10.3695409,7.95149199 13.5503981,7.97866846 C16.7325409,8.00584493 19.2898266,10.6264332 19.2615409,13.8306685 C19.2345409,17.0349038 16.6335409,19.6101979 13.4513981,19.5830214 L13.4513981,19.5830214 Z" id="Icon" fill="#15737B"></path>
                    <ellipse id="Oval-2" fill="#FFFFFF" cx="13.5" cy="13.5882353" rx="5.78571429" ry="5.82352941"></ellipse>
                </g>
            </g>
        </g>
    </g>
</svg>