<?xml version="1.0" encoding="UTF-8"?>
<svg width="156px" height="141px" viewBox="0 0 156 141" version="1.1" xmlns="http://www.w3.org/2000/svg" xmlns:xlink="http://www.w3.org/1999/xlink">
    <!-- Generator: Sketch 59 (86127) - https://sketch.com -->
    <title>spinach</title>
    <desc>Created with Sketch.</desc>
    <g id="Page-1" stroke="none" stroke-width="1" fill="none" fill-rule="evenodd">
        <g id="Desktop-HD" transform="translate(-1078.000000, -831.000000)">
            <g id="spinach" transform="translate(1155.664337, 902.266764) rotate(-343.000000) translate(-1155.664337, -902.266764) translate(1094.164337, 817.266764)">
                <g id="Group-4" fill-rule="nonzero">
                    <path d="M62.7751024,121.946546 L62.6514699,122.039617 C58.4555125,135.549818 50.5641566,147.632442 39.8639367,156.933465 L30.1980059,165.326302 C25.4321338,169.452918 18.7680543,170.625303 12.8698916,168.372102 C6.97323654,166.118901 2.80592529,160.80789 2.03850084,154.566177 L0.586575733,142.606647 C0.191555828,139.464774 -0.00444670293,136.303387 4.54747351e-13,133.137497 C0.0121382068,116.027577 5.68715976,99.3980201 16.1491616,85.8232699 C17.7232111,86.3156416 40.4805901,52.6827458 42.1797797,52.6827458 C42.9200656,52.6827458 94.6722214,74.2029956 94.6722214,74.2029956 C95.1034267,77.4619565 60.674862,119.48769 62.7751024,121.946546 Z" id="Shape" fill="#FBD400"></path>
                    <path d="M20.7069782,158.048237 L14.506843,157.572803 L14.7233029,154.765332 C16.6048378,129.887769 26.274385,106.218351 42.3756637,87.0791017 L49.3129729,78.8026292 L58.0273722,77.8788416 L47.1498887,91.0255094 C31.8735791,109.182294 22.6990139,131.636044 20.9143557,155.237758 L20.7069782,158.048237 Z" id="Shape" fill="#F9B400"></path>
                    <path d="M42.3705826,136.669732 C38.1411999,126.130469 35.9722857,114.881066 35.9828291,103.526346 L35.9828291,102.910992 L35.577664,103.314206 C28.8856598,110.004871 21.1543844,115.571647 12.6835695,119.799389 L9.92573472,114.283766 C17.8000983,110.352418 24.987639,105.17682 31.2097117,98.9570752 L36.8805186,93.2940085 C37.7616399,92.409342 39.0901001,92.1430395 40.2438417,92.6184723 C41.3990899,93.0954096 42.1521851,94.2208016 42.1521851,95.4695649 L42.1521851,103.526346 C42.1416417,114.097204 44.1614433,124.571772 48.1016375,134.38284 L42.3705826,136.669732 Z" id="Shape" fill="#F9B400"></path>
                    <path d="M30.765037,157.284719 C25.1124925,151.564127 21.5879296,144.021952 20.7963324,135.948164 C17.5968355,140.135197 14.1460144,144.116938 10.464938,147.871939 L6.10814444,143.435185 C10.1022482,139.361523 13.8104137,135.004435 17.2025421,130.397627 L21.2312592,124.945138 C22.0273709,123.865059 23.4134184,123.423835 24.671546,123.85127 C25.9296736,124.278706 26.779963,125.476752 26.779963,126.828001 L26.779963,132.343302 C26.7588937,140.038679 29.7627489,147.421523 35.1218305,152.847966 L30.765037,157.284719 Z" id="Shape" fill="#F9B400"></path>
                    <path d="M97.9940355,6.14919866 L116.693478,4.58110833 L118.718947,4.9817589 L115.539981,21.1458455 L120.090057,37.3414435 C128.015407,65.3990077 119.027865,95.4553248 96.9333657,114.785603 L87.2412474,123.236785 C81.7400684,128.035592 73.7599351,128.874408 67.3578716,125.325572 C65.5728418,124.3397 63.988685,123.03721 62.6830109,121.484125 C60.5373227,119.00069 59.1631696,115.959045 58.7249014,112.725327 L57.1666145,100.801838 C56.1668149,93.2539959 56.2931214,85.6026149 57.5394467,78.0922871 C63.5869392,75.3867683 90.0778165,13.9851489 97.9940355,6.14919866 Z" id="Shape" fill="#FBD400"></path>
                    <path d="M81.6816562,116.818262 L76.3518055,113.723409 L80.615686,106.400333 C91.8875283,87.0771449 99.2332234,65.7093585 102.230605,43.5285684 L108.406296,2.29055417 L114.527708,3.12622492 L108.352017,44.3642392 C105.244571,67.3504768 97.6335144,89.4934876 85.9545828,109.520876 L81.6816562,116.818262 Z" id="Shape" fill="#F9B400"></path>
                    <path d="M103.838455,102.311419 L97.7303111,102.311419 C97.7258372,98.641201 96.9011782,95.0219578 95.3204572,91.7379158 L93.4206097,87.8004632 L91.4506732,89.0238693 C84.121198,93.5792038 75.7359209,95.9843089 67.1895888,95.9843089 L67.1895888,89.6571984 C74.6279249,89.6571984 81.9290663,87.5641234 88.3071262,83.5988664 L93.102974,80.6191311 C93.8307021,80.1618985 94.7120287,80.0475905 95.5277405,80.3024667 C96.3464346,80.5480749 97.027934,81.1366073 97.4082019,81.9259515 L100.784383,88.9111059 C102.785636,93.0740852 103.830999,97.6603134 103.838455,102.311419 Z" id="Shape" fill="#F9B400"></path>
                    <path d="M117.035682,84.3867663 C114.142107,76.964779 109.104534,70.6192394 102.594738,66.1957105 C101.756888,65.6192604 100.69611,65.5030529 99.758017,65.8822563 C90.0030486,69.8868265 79.5852809,71.9403348 69.0732554,71.9326897 L67.1895888,71.9326897 L67.1895888,78.1956606 L69.0732554,78.1956606 C79.8037206,78.206364 90.4459122,76.2170758 100.47767,72.3271837 C105.343185,75.9892477 109.107526,80.9724075 111.34279,86.7093867 L114.061314,93.9127208 C115.385416,91.2690006 116.561399,88.5503576 117.58178,85.7705529 L117.035682,84.3867663 Z" id="Shape" fill="#F9B400"></path>
                    <path d="M122.926407,58.4992933 C122.926407,57.9873369 122.885228,57.4723334 122.873027,56.9619007 C120.107952,50.6782461 114.812672,45.8542768 108.295757,43.6830335 C107.382199,43.37525 106.375608,43.5093339 105.57491,44.0456691 L104.013169,45.0939606 C99.4408042,48.1443673 94.0646923,49.7686095 88.5680944,49.7625148 L88.5680944,56.0035063 C95.2954789,56.0080775 101.8734,54.0196757 107.467606,50.2866606 L107.708579,50.1266743 C112.152831,52.016037 115.659124,55.6012549 117.446586,60.085444 L121.866436,71.0071791 C122.558849,66.8734362 122.912681,62.6909358 122.926407,58.4992933 Z" id="Shape" fill="#F9B400"></path>
                    <path d="M107.185709,4.26118021 L113.059813,2.29055417 L118.345299,4.87747036 L118.159657,5.7703396 L116.150811,5.36899959 L115.747834,5.7703396 C107.889032,13.6182713 101.963613,23.1767843 98.4379434,33.6912985 C93.846725,47.3729444 85.4672228,59.4853041 74.2668828,68.631955 C69.1489266,72.8016851 63.5072519,76.2889866 57.4822207,79.0066767 C50.6150132,82.113682 43.3236995,84.1985468 35.8452351,85.1936304 L23.1416563,86.8861744 C22.3930552,86.9838788 21.6399262,87.0349856 20.8852881,87.0410583 C19.1994265,87.0455078 17.5211112,86.7959851 15.9092041,86.3014498 C11.102159,84.8343782 7.18558684,81.3350515 5.20390672,76.7339181 C3.2207178,72.1312817 3.37164544,66.8943165 5.61593945,62.4134349 L11.0251858,51.6388759 C24.3053081,25.1759699 51.4556804,8.4564637 81.1597479,8.44744501 C90.0041073,8.44594196 98.7911139,7.03148018 107.185709,4.26118021 L107.185709,4.26118021 Z" id="Shape" fill="#FBD400"></path>
                    <path d="M20.8527796,76.2867053 L15.5836911,73.0377569 C32.04789,46.2195484 56.1606685,24.9454452 84.8190006,11.9557068 L110.967666,1.42108547e-14 L118.06981,3.61835392 L87.3801319,17.6012468 C59.8419163,30.0807824 36.6721548,50.5191821 20.8527796,76.2867053 Z" id="Shape" fill="#F9B400"></path>
                    <path d="M23.0324658,52.4373639 L19.5918918,47.2778034 C26.1612237,42.8888462 33.8870003,40.549785 41.7883627,40.5558291 L43.0129224,40.5558291 L43.0129224,46.7570027 L41.7883627,46.7570027 C35.11156,46.7509469 28.5846108,48.7281726 23.0324658,52.4373639 Z" id="Shape" fill="#F9B400"></path>
                    <path d="M61.6552939,62.7716246 L61.1527551,59.7603667 C59.5739962,50.3284239 59.5255588,40.7026944 61.0104699,31.2540981 C53.1045668,31.3313099 45.2334778,32.3396041 37.5621934,34.2547577 L36.0621454,28.2398125 C44.5432438,26.1233028 53.2513927,25.0529362 61.9928426,25.0529362 L64.7129092,25.0529362 C65.643817,25.0529362 66.5247733,25.4707879 67.1135912,26.1914307 C67.7024095,26.9135874 67.9370282,27.8613238 67.7508469,28.7727248 C65.7694514,38.6543127 65.6044613,48.8129541 67.2664722,58.7535864 L67.769011,61.7603019 L61.6552939,62.7716246 Z" id="Shape" fill="#F9B400"></path>
                    <path d="M49.3521764,76.0596122 L48.4409462,74.2595188 C43.7727854,65.0652669 40.9982262,55.0277419 40.2837736,44.7419278 L40.2217131,43.8698894 L46.4217094,43.4429542 L46.4807426,44.3074225 C47.1391896,53.7696448 49.6912386,63.0032597 53.9855231,71.4587012 L54.8982667,73.2633362 L49.3521764,76.0596122 Z" id="Shape" fill="#F9B400"></path>
                    <path d="M80.5216887,51.2428531 C76.1971309,42.6102784 74.5578251,32.8800865 75.8126582,23.3073455 L76.5694937,17.4786165 L82.7134842,18.2749574 L81.9581623,24.103686 C80.8743739,32.4576928 82.3184162,40.9449273 86.1025936,48.4708004 L80.5216887,51.2428531 Z" id="Shape" fill="#F9B400"></path>
                </g>
                <g id="Group" transform="translate(15.270361, 0.000000)"></g>
            </g>
        </g>
    </g>
</svg>